{"asset":{"version":"2.0","generator":"babylon.js glTF exporter for Autodesk MAYA 2022 v20220322.1"},"scene":0,"scenes":[{"nodes":[0]}],"nodes":[{"children":[1],"translation":[-0.355527729,-0.48633486,-1.51606333],"scale":[3.00985622,3.00985622,3.00985622],"name":"group"},{"children":[2],"translation":[0.338277817,0.0,-0.426707685],"name":"pasted__cup"},{"children":[3],"translation":[0.0409639776,0.919926763,0.4528727],"scale":[0.00615079328,0.00615079328,0.00615079328],"name":"sugarfit_scene_anim_02:Object005"},{"mesh":0,"name":"cup_handle","extras":{"currentUVSet":"map1"}}],"meshes":[{"primitives":[{"attributes":{"POSITION":1,"NORMAL":2,"TEXCOORD_0":3},"indices":0,"material":0}],"name":"cup_handle"}],"accessors":[{"bufferView":0,"componentType":5123,"count":1026,"type":"SCALAR","name":"accessorIndices"},{"bufferView":1,"componentType":5126,"count":208,"max":[-33.79811,-117.3092,77.36772],"min":[-39.11343,-124.582344,75.39018],"type":"VEC3","name":"accessorPositions"},{"bufferView":1,"byteOffset":2496,"componentType":5126,"count":208,"type":"VEC3","name":"accessorNormals"},{"bufferView":2,"componentType":5126,"count":208,"type":"VEC2","name":"accessorUVs"}],"bufferViews":[{"buffer":0,"byteLength":2052,"name":"bufferViewScalar"},{"buffer":0,"byteOffset":2052,"byteLength":4992,"byteStride":12,"name":"bufferViewFloatVec3"},{"buffer":0,"byteOffset":7044,"byteLength":1664,"byteStride":8,"name":"bufferViewFloatVec2"}],"buffers":[{"uri":"cup_handle.bin","byteLength":8708}],"materials":[{"pbrMetallicRoughness":{"baseColorTexture":{"index":0},"metallicFactor":0.0,"roughnessFactor":0.2},"name":"aiStandardSurface4"}],"textures":[{"sampler":0,"source":0,"name":"green.png"}],"images":[{"uri":"green.png"}],"samplers":[{"magFilter":9729,"minFilter":9987}]}