{
  "accessors": [
    {
      "bufferView": 0,
      "componentType": 5125,
      "count": 2604,
      "type": "SCALAR"
    },
    {
      "bufferView": 1,
      "componentType": 5126,
      "count": 795,
      "max": [
        -329.871643066406,
        1101.52099609375,
        32.6945838928223
      ],
      "min": [
        -383.762634277344,
        885.677490234375,
        24.6440773010254
      ],
      "type": "VEC3"
    },
    {
      "bufferView": 2,
      "componentType": 5126,
      "count": 795,
      "type": "VEC3"
    },
    {
      "bufferView": 3,
      "componentType": 5126,
      "count": 795,
      "type": "VEC2"
    },
    {
      "bufferView": 4,
      "componentType": 5125,
      "count": 1740,
      "type": "SCALAR"
    },
    {
      "bufferView": 5,
      "componentType": 5126,
      "count": 415,
      "max": [
        107.819854736328,
        153.762130737305,
        38.4934005737305
      ],
      "min": [
        -47.3620643615723,
        115.994438171387,
        7.64801406860352
      ],
      "type": "VEC3"
    },
    {
      "bufferView": 6,
      "componentType": 5126,
      "count": 415,
      "type": "VEC3"
    },
    {
      "bufferView": 7,
      "componentType": 5126,
      "count": 415,
      "type": "VEC2"
    }
  ],
  "asset": {
    "generator": "Substance Painter 7.1.0",
    "version": "2.0"
  },
  "bufferViews": [
    {
      "buffer": 0,
      "byteLength": 10416,
      "target": 34963
    },
    {
      "buffer": 0,
      "byteLength": 9540,
      "byteOffset": 10416,
      "target": 34962
    },
    {
      "buffer": 0,
      "byteLength": 9540,
      "byteOffset": 19956,
      "target": 34962
    },
    {
      "buffer": 0,
      "byteLength": 6360,
      "byteOffset": 29496,
      "target": 34962
    },
    {
      "buffer": 0,
      "byteLength": 6960,
      "byteOffset": 35856,
      "target": 34963
    },
    {
      "buffer": 0,
      "byteLength": 4980,
      "byteOffset": 42816,
      "target": 34962
    },
    {
      "buffer": 0,
      "byteLength": 4980,
      "byteOffset": 47796,
      "target": 34962
    },
    {
      "buffer": 0,
      "byteLength": 3320,
      "byteOffset": 52776,
      "target": 34962
    }
  ],
  "buffers": [
    {
      "byteLength": 56096,
      "uri": "silver.bin"
    }
  ],
  "images": [
    {
      "uri": "Metal_baseColor.png"
    },
    {
      "uri": "Metal_occlusionRoughnessMetallic.png"
    },
    {
      "uri": "Metal_normal.png"
    }
  ],
  "materials": [
    {
      "alphaMode": "OPAQUE",
      "name": "Metal",
      "normalTexture": {
        "index": 2
      },
      "occlusionTexture": {
        "index": 1
      },
      "pbrMetallicRoughness": {
        "baseColorTexture": {
          "index": 0
        },
        "metallicRoughnessTexture": {
          "index": 1
        }
      }
    }
  ],
  "meshes": [
    {
      "name": "pCube3",
      "primitives": [
        {
          "attributes": {
            "NORMAL": 2,
            "POSITION": 1,
            "TEXCOORD_0": 3
          },
          "indices": 0,
          "material": 0,
          "mode": 4
        }
      ]
    },
    {
      "name": "pCylinder2",
      "primitives": [
        {
          "attributes": {
            "NORMAL": 6,
            "POSITION": 5,
            "TEXCOORD_0": 7
          },
          "indices": 4,
          "material": 0,
          "mode": 4
        }
      ]
    }
  ],
  "nodes": [
    {
      "children": [
        1
      ],
      "name": "RootNode"
    },
    {
      "children": [
        2,
        4
      ],
      "name": "Door_handle_02",
      "translation": [
        330.274108886719,
        -885.677551269531,
        -25.0465679168701
      ]
    },
    {
      "children": [
        3
      ],
      "name": "pCube3"
    },
    {
      "mesh": 0,
      "name": "pCube3"
    },
    {
      "children": [
        5
      ],
      "name": "pCylinder2",
      "translation": [
        -330.274108886719,
        885.677551269531,
        25.0465679168701
      ]
    },
    {
      "mesh": 1,
      "name": "pCylinder2"
    }
  ],
  "samplers": [
    {
      "magFilter": 9729,
      "minFilter": 9985,
      "wrapS": 10497,
      "wrapT": 10497
    }
  ],
  "scene": 0,
  "scenes": [
    {
      "name": "Scene",
      "nodes": [
        0
      ]
    }
  ],
  "textures": [
    {
      "sampler": 0,
      "source": 0
    },
    {
      "sampler": 0,
      "source": 1
    },
    {
      "sampler": 0,
      "source": 2
    }
  ]
}