{"asset":{"version":"2.0","generator":"babylon.js glTF exporter for Autodesk MAYA 2022 v20220322.1"},"scene":0,"scenes":[{"nodes":[0]}],"nodes":[{"children":[1],"translation":[-0.355527729,-0.48633486,-1.51606333],"scale":[3.00985622,3.00985622,3.00985622],"name":"group"},{"children":[2],"translation":[0.338277817,0.0,-0.426707685],"name":"pasted__cup"},{"mesh":0,"name":"Line012","extras":{"currentUVSet":"map1"}}],"meshes":[{"primitives":[{"attributes":{"POSITION":1,"NORMAL":2,"TEXCOORD_0":3},"indices":0,"material":0}],"name":"Line012"}],"accessors":[{"bufferView":0,"componentType":5123,"count":6000,"type":"SCALAR","name":"accessorIndices"},{"bufferView":1,"componentType":5126,"count":1219,"max":[-0.174023628,0.154649958,0.971222043],"min":[-0.272122383,0.135310739,0.8733173],"type":"VEC3","name":"accessorPositions"},{"bufferView":1,"byteOffset":14628,"componentType":5126,"count":1219,"type":"VEC3","name":"accessorNormals"},{"bufferView":2,"componentType":5126,"count":1219,"type":"VEC2","name":"accessorUVs"}],"bufferViews":[{"buffer":0,"byteLength":12000,"name":"bufferViewScalar"},{"buffer":0,"byteOffset":12000,"byteLength":29256,"byteStride":12,"name":"bufferViewFloatVec3"},{"buffer":0,"byteOffset":41256,"byteLength":9752,"byteStride":8,"name":"bufferViewFloatVec2"}],"buffers":[{"uri":"base_01.bin","byteLength":51008}],"materials":[{"pbrMetallicRoughness":{"baseColorTexture":{"index":1},"metallicFactor":0.0,"roughnessFactor":0.2},"normalTexture":{"index":0},"name":"cup1"}],"textures":[{"sampler":0,"source":0,"name":"cup_NRM.jpg"},{"sampler":0,"source":1,"name":"red.png"}],"images":[{"uri":"cup_NRM.jpg"},{"uri":"red.png"}],"samplers":[{"magFilter":9729,"minFilter":9987}]}